<?xml version="1.0" standalone="no"?>
<!DOCTYPE svg PUBLIC "-//W3C//DTD SVG 20010904//EN"
 "http://www.w3.org/TR/2001/REC-SVG-20010904/DTD/svg10.dtd">
<svg version="1.0" xmlns="http://www.w3.org/2000/svg"
 width="300.000000pt" height="240.000000pt" viewBox="0 0 300.000000 240.000000"
 preserveAspectRatio="xMidYMid meet">
<metadata>
Created by potrace 1.10, written by Peter Selinger 2001-2011
</metadata>
<g transform="translate(0.000000,240.000000) scale(0.100000,-0.100000)"
fill="#c96442" stroke="none">
<path d="M1430 1888 c-146 -74 -94 -290 70 -290 164 0 216 216 70 290 -24 12
-56 22 -70 22 -14 0 -46 -10 -70 -22z m136 -40 c42 -23 61 -81 44 -132 -7 -21
-18 -40 -26 -43 -8 -3 -12 -9 -9 -14 3 -4 -11 -12 -31 -18 -38 -10 -90 -5
-100 10 -3 5 -10 7 -15 3 -5 -3 -8 -1 -7 5 2 5 -5 16 -15 23 -24 18 -34 91
-17 123 7 13 16 22 20 20 5 -3 11 2 14 10 13 36 87 42 142 13z"/>
<path d="M1006 1684 c-15 -16 -26 -38 -26 -53 0 -26 27 -65 50 -73 7 -2 2 -25
-14 -63 -13 -33 -54 -145 -91 -248 -73 -205 -76 -230 -34 -292 39 -56 84 -80
154 -80 50 0 69 5 103 28 46 30 82 90 82 136 0 26 -100 322 -155 459 -10 24
-15 45 -13 48 16 16 218 -81 292 -140 31 -24 40 -28 44 -16 3 8 27 38 54 66
l48 51 -52 41 c-73 56 -169 106 -260 136 -101 34 -147 34 -182 0z m194 -44 c8
-4 21 -5 29 -2 8 3 11 0 7 -7 -4 -7 0 -11 13 -11 27 0 131 -62 124 -74 -4 -5
1 -7 10 -3 10 3 17 2 17 -3 0 -6 6 -10 14 -10 7 0 19 -7 26 -15 11 -13 7 -22
-25 -55 l-38 -38 -26 24 c-14 13 -29 24 -34 24 -4 0 -5 5 -1 12 5 7 2 9 -8 6
-8 -4 -20 2 -27 13 -6 11 -15 18 -20 15 -4 -3 -29 6 -56 19 -27 14 -54 25 -61
25 -7 0 -15 6 -17 13 -4 9 -8 9 -15 -2 -6 -9 -12 -10 -16 -3 -4 6 -14 8 -23 5
-12 -5 -14 -3 -8 8 7 11 5 11 -10 -1 -11 -9 -16 -10 -11 -2 4 7 2 12 -5 12 -7
0 -9 3 -6 7 4 3 -1 12 -11 19 -16 11 -16 13 2 33 10 11 28 21 40 23 20 4 105
-16 136 -32z m-164 -360 l-1 -200 -74 0 c-66 0 -72 2 -66 18 9 21 126 352 131
370 9 32 11 -2 10 -188z m39 163 c5 -22 98 -287 120 -345 6 -16 0 -18 -66 -18
l-74 0 0 199 c0 189 4 225 20 164z m-141 -405 c-6 -10 -4 -10 7 -2 12 10 75
11 222 5 35 -1 36 -25 2 -71 -14 -19 -25 -31 -25 -27 0 4 -18 -5 -40 -19 -33
-22 -43 -24 -55 -14 -12 10 -15 10 -15 -1 0 -10 -3 -10 -12 -1 -7 7 -23 12
-37 12 -13 0 -21 3 -18 6 3 4 -5 15 -18 26 -14 11 -25 26 -25 34 0 8 -4 14
-10 14 -17 0 -11 38 8 43 9 3 18 5 20 6 2 0 0 -5 -4 -11z"/>
<path d="M1803 1681 c-44 -15 -107 -43 -139 -60 -67 -39 -154 -102 -154 -113
0 -17 30 -7 44 14 9 12 16 17 16 10 0 -7 5 -10 10 -7 6 4 8 11 4 16 -3 5 -2 9
3 8 21 -4 34 2 27 13 -5 8 -2 9 10 5 10 -4 15 -3 11 3 -3 6 3 10 13 10 11 0
25 6 31 14 7 8 26 18 42 21 16 4 36 13 43 21 17 17 117 44 162 44 42 0 67 -25
59 -58 -5 -22 -29 -49 -45 -52 -3 -1 -16 -3 -30 -6 -29 -5 -128 -41 -150 -55
-8 -5 -25 -13 -38 -19 -52 -23 -176 -135 -208 -189 -10 -17 -21 -28 -26 -25
-5 3 -7 2 -6 -3 4 -14 -13 -53 -23 -53 -6 0 -7 -4 -4 -10 3 -5 1 -10 -5 -10
-6 0 -8 -5 -5 -10 4 -6 2 -16 -3 -23 -5 -7 -13 -31 -17 -55 -4 -23 -10 -40
-15 -37 -4 3 -9 -43 -9 -103 -1 -88 3 -121 23 -187 18 -56 22 -83 15 -92 -6
-6 -9 -16 -6 -20 3 -4 -1 -13 -8 -20 -9 -8 -16 -7 -28 8 -9 10 -14 19 -11 19
4 0 -4 15 -18 33 -29 40 -48 82 -48 108 0 11 -3 18 -7 16 -5 -3 -9 5 -9 16 -1
12 -5 60 -9 107 -4 55 -3 101 5 130 6 25 14 56 17 70 5 26 20 63 55 137 11 24
18 51 16 60 -5 25 -60 -73 -89 -157 -31 -90 -38 -269 -14 -360 18 -70 85 -208
114 -234 16 -14 19 -12 50 40 33 54 34 55 18 92 -28 63 -39 124 -40 207 -2
269 162 482 455 588 l66 24 -25 -66 c-78 -206 -153 -426 -153 -449 1 -46 36
-109 77 -136 86 -57 202 -36 260 47 44 64 39 100 -51 347 -43 118 -83 224 -89
235 -7 14 -7 20 2 23 20 7 51 45 51 63 0 31 -21 66 -47 78 -38 17 -82 13 -170
-18z m142 -401 l0 -200 -72 0 c-40 0 -73 1 -73 3 0 2 29 86 65 188 36 101 68
190 70 197 2 6 6 12 7 12 2 0 3 -90 3 -200z m51 122 c12 -37 41 -119 64 -182
23 -63 44 -122 47 -130 3 -13 -8 -14 -71 -12 l-76 4 0 200 c0 111 3 198 7 195
3 -4 16 -38 29 -75z m44 -347 c25 1 53 -2 63 -7 16 -8 16 -13 -10 -59 -15 -28
-36 -55 -47 -61 -14 -8 -17 -7 -11 4 4 7 -2 3 -14 -9 -24 -25 -79 -31 -125
-13 -41 15 -93 75 -98 112 l-3 33 68 -3 c38 -2 74 1 79 6 6 6 19 7 32 2 12 -4
42 -7 66 -5z"/>
<path d="M1582 1298 c-63 -83 -67 -94 -48 -137 28 -66 39 -125 38 -216 0 -111
-35 -224 -96 -319 l-42 -63 33 -36 33 -37 40 44 c86 93 148 201 176 303 20 78
20 232 -1 312 -18 70 -73 201 -85 201 -4 0 -26 -24 -48 -52z m56 -46 c2 -12 7
-22 12 -22 7 0 25 -52 46 -135 4 -17 3 -18 -6 -5 -10 12 -10 11 -3 -5 20 -48
-2 -305 -26 -291 -3 2 -7 -7 -7 -20 -1 -13 -17 -47 -35 -76 -19 -29 -39 -62
-45 -73 -7 -11 -19 -19 -27 -19 -9 1 -14 -4 -11 -10 2 -6 -6 -22 -17 -36 -11
-14 -18 -19 -14 -12 3 6 2 12 -4 12 -5 0 -8 8 -6 17 2 10 4 22 4 26 1 5 5 6
10 3 5 -3 8 2 7 12 0 9 4 16 9 15 6 -1 11 6 12 15 2 31 29 92 38 85 4 -5 5 0
2 10 -4 9 -2 17 4 17 6 0 7 5 4 10 -4 6 -1 18 7 27 11 14 11 16 -2 8 -13 -8
-13 -6 -1 8 19 23 26 169 11 242 -6 33 -12 67 -13 75 -1 8 -8 21 -14 28 -19
20 -17 66 3 58 9 -3 12 -2 9 5 -9 14 23 61 38 56 7 -2 13 -13 15 -25z"/>
</g>
</svg>
